<?xml version="1.0"?>
<svg xmlns="http://www.w3.org/2000/svg" xmlns:xlink="http://www.w3.org/1999/xlink" viewBox="0 0 512 512" width="512" height="512"><defs><linearGradient id="linear-gradient" x1="55.517" y1="466.831" x2="444.483" y2="77.866" gradientUnits="userSpaceOnUse"><stop offset="0" stop-color="#41dfd0"/><stop offset="1" stop-color="#ee83ef"/></linearGradient></defs><g id="gradient"><path d="M233.373,385.373l-11.314-11.314a48,48,0,0,1,67.882,0l-11.314,11.314a32,32,0,0,0-45.254,0Zm5.656,5.657,11.315,11.313a8,8,0,0,1,11.312,0l11.315-11.313a24,24,0,0,0-33.942,0Zm215.2-80.971a48,48,0,0,0-67.883,0l11.314,11.314a32,32,0,0,1,45.254,0ZM403.313,327.03l11.315,11.313a8,8,0,0,1,11.313,0l11.314-11.313a24,24,0,0,0-33.942,0ZM256,407.5a8.5,8.5,0,1,0,8.5,8.5A8.51,8.51,0,0,0,256,407.5ZM176,88V38a14.015,14.015,0,0,1,14-14H322a14.015,14.015,0,0,1,14,14V88a8,8,0,0,1-8,8H184A8,8,0,0,1,176,88ZM288,72H224v8h64Zm-96,8h16V64a8,8,0,0,1,8-8h80a8,8,0,0,1,8,8V80h16V40H192Zm304,56v64a16.019,16.019,0,0,1-16,16H459.1l4.49,13.47A8,8,0,0,1,456,240H408a8,8,0,0,1-7.589-10.53L404.9,216H384a16.019,16.019,0,0,1-16-16V168H341.275l-19.706,45.982A55.561,55.561,0,0,1,327.5,232.5,56,56,0,0,1,320,344h-8V466a22.025,22.025,0,0,1-22,22H222a22.025,22.025,0,0,1-22-22V344h-8a56.069,56.069,0,0,1-50.586-32H124l-16.763,22.35,32.732,18.7A8,8,0,0,1,136,368v64a8,8,0,0,1-8,8H32a8,8,0,0,1-8-8V368a8,8,0,0,1-3.969-14.946l56-32a8,8,0,0,1,7.938,0l9.268,5.3L113.6,299.2A8,8,0,0,1,120,296h16.581a55.95,55.95,0,0,1,42.091-62.394A40.04,40.04,0,0,1,225.3,209.089a56.224,56.224,0,0,1,5.152-6.636L189.1,168H128v64a8,8,0,0,1-8,8H24a8,8,0,0,1-8-8V112A16.019,16.019,0,0,1,32,96h80a16.019,16.019,0,0,1,16,16v40h64a8,8,0,0,1,5.122,1.854l45.852,38.21A55.616,55.616,0,0,1,264,184.583v-12.3l-44.438-29.625A8,8,0,0,1,216,136V112h16v19.719l44.438,29.625A8,8,0,0,1,280,168v16.573a55.858,55.858,0,0,1,30.442,14.753l18.2-42.477A8,8,0,0,1,336,152h32V136a16.019,16.019,0,0,1,16-16h96A16.019,16.019,0,0,1,496,136ZM112,208H32v16h80Zm0-96H32v80h80ZM54.125,352h51.75L80,337.214ZM88,400H72v24H88ZM40,368v56H56V392a8,8,0,0,1,8-8H96a8,8,0,0,1,8,8v32h16V368ZM264,256a8,8,0,1,0,8-8A8.009,8.009,0,0,0,264,256Zm32,200H216v10a6.006,6.006,0,0,0,6,6h68a6.006,6.006,0,0,0,6-6Zm0-112H216v96h80Zm0-26a6.006,6.006,0,0,0-6-6H222a6.006,6.006,0,0,0-6,6v10h80Zm24-70a8,8,0,0,1-8-8,40.067,40.067,0,0,0-32-39.195v32.571a24,24,0,1,1-16,0v-32.57a39.758,39.758,0,0,0-27.868,21.486,8,8,0,0,1-10.415,3.764,24,24,0,0,0-33.05,16.334,8,8,0,0,1-6.6,6.051A40,40,0,0,0,192,328h8V318a22.025,22.025,0,0,1,22-22h68a22.025,22.025,0,0,1,22,22v10h8a40,40,0,0,0,0-80Zm64-72h96.006L480,136H384Zm60.9,48-2.666-8H421.766l-2.666,8Zm35.11-24v-8H384v8h96.01ZM40,152a32,32,0,1,1,32,32A32.036,32.036,0,0,1,40,152Zm16,0a16,16,0,1,0,16-16A16.019,16.019,0,0,0,56,152ZM184,280h16V264H184Zm32,0h16V264H216Zm96,0h16V264H312ZM496,392v32a8,8,0,0,1-8,8h-9.376a24,24,0,0,1-45.248,0H422.624a24,24,0,0,1-45.248,0H368a8,8,0,0,1-8-8V384a7.993,7.993,0,0,1,1.344-4.438l16-24A8,8,0,0,1,384,352h56a8,8,0,0,1,6.656,3.562L460.751,376.7a3.632,3.632,0,0,1,.458.352l28.731,7.183A8,8,0,0,1,496,392Zm-60.281-24H416v8h25.052Zm-52.771,8H400v-8H388.281ZM408,424a8,8,0,1,0-8,8A8.009,8.009,0,0,0,408,424Zm56,0a8,8,0,1,0-8,8A8.009,8.009,0,0,0,464,424Zm16-25.754L455.015,392H376v24h1.376a24,24,0,0,1,45.248,0h10.752a24,24,0,0,1,45.248,0H480Z" style="fill:url(#linear-gradient)"/></g></svg>
